<svg xmlns="http://www.w3.org/2000/svg" xmlns:xlink="http://www.w3.org/1999/xlink" id="Layer_1" x="0" y="0" version="1.1" viewBox="0 0 374.17 113.69" style="enable-background:new 0 0 374.17 113.69" xml:space="preserve"><style type="text/css">.st0{fill-rule:evenodd;clip-rule:evenodd;fill:#e1251b}</style><g><g><g><path d="M154.1,27.36h7.89l18.77,43.41h-9.3l-4.22-9.9h-18.53l-4.16,9.9h-9.17L154.1,27.36z M152.02,53.1h11.92l-5.93-14.07 L152.02,53.1z"/><path d="M184.82,24.91h8.37v45.86h-8.37V24.91z"/><path d="M201.27,24.91h8.37v45.86h-8.37V24.91z"/><path d="M216.57,29.87c0-2.93,2.44-5.32,5.32-5.32c2.99,0,5.38,2.38,5.38,5.32c0,2.94-2.38,5.32-5.38,5.32 C219.01,35.19,216.57,32.81,216.57,29.87z M217.74,40.2h8.37v30.57h-8.37V40.2z"/><path d="M232.23,55.49c0-8.62,6.23-15.96,14.37-15.96c4.22,0,7.4,2.14,8.8,4.09V40.2h8.38v30.57h-8.38v-3.43 c-1.4,1.96-4.59,4.1-8.8,4.1C238.47,71.45,232.23,64.11,232.23,55.49z M256.08,55.49c0-4.83-3.06-8.31-7.7-8.31 c-4.65,0-7.71,3.49-7.71,8.31s3.06,8.31,7.71,8.31C253.02,63.8,256.08,60.32,256.08,55.49z"/><path d="M271.94,40.2h8.37v3.49c1.65-2.45,4.77-4.16,8.74-4.16c7.4,0,11.8,5.38,11.8,13.33v17.91h-8.38V54.26 c0-4.4-1.9-7.09-5.38-7.09c-3.91,0-6.79,2.81-6.79,8.68v14.92h-8.37V40.2z"/><path d="M306.63,55.49c0-8.87,6.79-15.96,16.08-15.96c8.43,0,14,5.32,15.65,12.35h-8.68c-1.17-2.75-3.37-4.77-6.97-4.77 c-4.4,0-7.64,3.24-7.64,8.38s3.24,8.37,7.64,8.37c3.6,0,5.81-2.02,6.97-4.76h8.68c-1.65,7.03-7.22,12.35-15.65,12.35 C313.41,71.45,306.63,64.36,306.63,55.49z"/><path d="M342.11,55.43c0-9.11,6.79-15.9,16.08-15.9c8.93,0,16.45,6.42,15.96,17.91H350.3c0.31,3.61,3,6.73,8.25,6.73 c2.94,0,5.51-1.22,6.48-3.37h8.74c-1.77,6.18-7.89,10.64-15.65,10.64C348.77,71.45,342.11,64.72,342.11,55.43z M350.61,51.94 h14.37c-0.98-4.1-4.22-5.63-7.04-5.63C354.03,46.32,351.4,48.52,350.61,51.94z"/></g><g><path d="M138.27,89.3c0-4.21,3.21-7.42,7.44-7.42c3.62,0,6.23,2.39,6.88,4.98h-1.98c-0.65-1.8-2.51-3.2-4.9-3.2 c-3.2,0-5.56,2.47-5.56,5.64c0,3.18,2.37,5.64,5.56,5.64c2.39,0,4.24-1.39,4.9-3.2h1.98c-0.65,2.59-3.26,4.98-6.88,4.98 C141.49,96.72,138.27,93.51,138.27,89.3z"/><path d="M173.1,82.12h1.88v6.13h7.87v-6.13h1.88v14.36h-1.88v-6.47h-7.87v6.47h-1.88V82.12z"/><path d="M206.46,82.12h8.38v1.78h-6.49v4.35h5.28v1.78h-5.28v4.67h6.49v1.78h-8.38V82.12z"/><path d="M237.36,82.12l5.32,7.16l5.36-7.16h1.7v14.36h-1.86V85.31l-5.18,6.96l-5.18-6.96v11.17h-1.88V82.12H237.36z"/><path d="M271.48,82.12h1.88v14.36h-1.88V82.12z"/><path d="M294.11,89.3c0-4.21,3.22-7.42,7.45-7.42c3.62,0,6.23,2.39,6.88,4.98h-1.99c-0.64-1.8-2.51-3.2-4.89-3.2 c-3.2,0-5.56,2.47-5.56,5.64c0,3.18,2.37,5.64,5.56,5.64c2.39,0,4.25-1.39,4.89-3.2h1.99c-0.65,2.59-3.26,4.98-6.88,4.98 C297.33,96.72,294.11,93.51,294.11,89.3z"/><path d="M333.29,82.12h1.56l6.37,14.36h-1.96l-1.86-4.19h-6.7l-1.82,4.19h-1.94L333.29,82.12z M331.45,90.6h5.2l-2.61-5.93 L331.45,90.6z"/><path d="M361.16,82.12h1.88V94.7h6.94v1.78h-8.82V82.12z"/></g></g><g><path d="M13.47,40.41c19.76,1.44,19.76,31.43,0,32.87c-3.98,0.32-7.12,3.69-7.13,7.71c0.02,4.23,3.49,7.69,7.72,7.71 c4.01-0.01,7.39-3.14,7.69-7.12c0.84-11.39,6.63-13.5,16.47-14.15c5.84,0,10.59-4.75,10.59-10.59c0-5.84-4.75-10.59-10.59-10.59 c-9.84-0.65-15.63-2.76-16.47-14.15c-0.3-3.99-3.68-7.11-7.69-7.12c-4.23,0.02-7.7,3.48-7.72,7.71 C6.35,36.72,9.49,40.09,13.47,40.41L13.47,40.41z M0,56.84c0-3.96,3.21-7.17,7.17-7.17c3.95,0,7.17,3.21,7.17,7.17 c0,3.96-3.22,7.17-7.17,7.17C3.21,64.01,0,60.81,0,56.84z" class="st0"/><path d="M40.41,100.22c1.44-19.76,31.43-19.76,32.87,0c0.32,3.98,3.69,7.12,7.71,7.13c4.23-0.02,7.69-3.49,7.71-7.72 c-0.01-4.01-3.14-7.39-7.12-7.69c-11.39-0.84-13.5-6.63-14.15-16.47c0-5.84-4.75-10.59-10.59-10.59s-10.59,4.75-10.59,10.59 C45.61,85.3,43.5,91.1,32.11,91.94c-3.99,0.3-7.11,3.68-7.12,7.69c0.02,4.23,3.48,7.7,7.71,7.72 C36.72,107.34,40.09,104.2,40.41,100.22L40.41,100.22z M56.84,113.69c-3.96,0-7.17-3.21-7.17-7.17c0-3.95,3.22-7.17,7.17-7.17 c3.96,0,7.17,3.22,7.17,7.17C64.01,110.48,60.81,113.7,56.84,113.69z" class="st0"/><path d="M100.22,73.28c-19.76-1.44-19.76-31.43,0-32.87c3.98-0.32,7.12-3.69,7.13-7.71 c-0.02-4.23-3.49-7.69-7.72-7.71c-4.01,0.01-7.39,3.14-7.69,7.12C91.1,43.5,85.3,45.61,75.46,46.26 c-5.84,0-10.59,4.75-10.59,10.59s4.75,10.59,10.59,10.59c9.84,0.65,15.63,2.76,16.47,14.15c0.3,3.99,3.68,7.11,7.69,7.12 c4.23-0.02,7.7-3.48,7.72-7.71C107.34,76.98,104.2,73.6,100.22,73.28L100.22,73.28z M113.69,56.85c0,3.96-3.21,7.17-7.17,7.17 c-3.95,0-7.17-3.21-7.17-7.17c0-3.96,3.22-7.17,7.17-7.17C110.48,49.68,113.7,52.88,113.69,56.85z" class="st0"/><path d="M73.28,13.47c-1.44,19.76-31.43,19.76-32.87,0c-0.32-3.98-3.69-7.12-7.71-7.13 c-4.23,0.02-7.69,3.49-7.71,7.72c0.01,4.01,3.14,7.39,7.12,7.69c11.39,0.84,13.5,6.63,14.15,16.47c0,5.84,4.75,10.59,10.59,10.59 s10.59-4.75,10.59-10.59c0.65-9.84,2.76-15.63,14.15-16.47c3.99-0.3,7.11-3.68,7.12-7.69c-0.02-4.23-3.48-7.7-7.71-7.72 C76.98,6.35,73.6,9.49,73.28,13.47L73.28,13.47z M56.85,0c3.96,0,7.17,3.21,7.17,7.17c0,3.95-3.22,7.17-7.17,7.17 c-3.96,0-7.17-3.22-7.17-7.17C49.68,3.21,52.88,0,56.85,0z" class="st0"/></g></g></svg>