<svg xmlns="http://www.w3.org/2000/svg" width="28" height="20" fill="none" viewBox="0 0 28 20"><rect width="28" height="20" fill="#fff" rx="2"/><mask id="mask0" style="mask-type:alpha" width="28" height="20" x="0" y="0" maskUnits="userSpaceOnUse"><rect width="28" height="20" fill="#fff" rx="2"/></mask><g mask="url(#mask0)"><path fill="#0748AE" fill-rule="evenodd" d="M0 14.6668H28V9.3335H0V14.6668Z" clip-rule="evenodd"/><path fill="#DE2035" fill-rule="evenodd" d="M0 19.9998H28V14.6665H0V19.9998Z" clip-rule="evenodd"/><path fill="#FFD935" fill-rule="evenodd" d="M0 9.33333H28V0H0V9.33333Z" clip-rule="evenodd"/><path fill="#FFD935" fill-rule="evenodd" d="M12.3999 8C11.7522 8.48651 11.3333 9.26108 11.3333 10.1335C11.3333 11.6062 12.5272 12.8002 13.9999 12.8002C15.4727 12.8002 16.6666 11.6062 16.6666 10.1335C16.6666 9.26108 16.2476 8.48651 15.6 8L14.6666 10.8002H13.3333L12.3999 8Z" clip-rule="evenodd"/><path fill="#5FC0DC" fill-rule="evenodd" d="M13.9999 7.3335L14.6666 10.6668H13.3333L13.9999 7.3335Z" clip-rule="evenodd"/><path stroke="#3F2821" stroke-linecap="round" stroke-linejoin="round" stroke-width=".667" d="M17.3334 6.00016L15.3334 5.3335L14.0001 6.66683L12.6667 5.3335L10.6667 6.00016" opacity=".66"/></g></svg>