<svg xmlns="http://www.w3.org/2000/svg" width="28" height="20" fill="none" viewBox="0 0 28 20"><rect width="28" height="20" fill="#fff" rx="2"/><mask id="mask0" style="mask-type:alpha" width="28" height="20" x="0" y="0" maskUnits="userSpaceOnUse"><rect width="28" height="20" fill="#fff" rx="2"/></mask><g mask="url(#mask0)"><path fill="#FFE547" fill-rule="evenodd" d="M0 19.9998H28V14.6665H0V19.9998Z" clip-rule="evenodd"/><path fill="#118C81" fill-rule="evenodd" d="M0 5.33333H28V0H0V5.33333Z" clip-rule="evenodd"/><path fill="#fff" fill-rule="evenodd" d="M0 14.6668H28V5.3335H0V14.6668Z" clip-rule="evenodd"/><path fill="#262626" fill-rule="evenodd" d="M0 13.3332H28V6.6665H0V13.3332Z" clip-rule="evenodd"/><path fill="#EF2147" fill-rule="evenodd" d="M0 0L13.3333 10L0 20V0Z" clip-rule="evenodd"/><path fill="#FDE444" fill-rule="evenodd" d="M4.66659 11.2739L2.7073 12.6966L3.45486 10.3935L1.4964 8.96978L3.9177 8.96909L4.66659 6.6665L5.41547 8.96909L7.83677 8.96978L5.87831 10.3935L6.62587 12.6966L4.66659 11.2739Z" clip-rule="evenodd"/></g></svg>